<svg width="125" height="54" viewBox="0 0 125 54" fill="none" xmlns="http://www.w3.org/2000/svg">
<g clip-path="url(#clip0_1_13)">
<path d="M0 6C0 2.6863 2.68629 0 6 0H118.788C122.102 0 124.788 2.68629 124.788 6V33.3939H0V6Z" fill="white"/>
<path d="M0 6C0 2.6863 2.68629 0 6 0H118.788C122.102 0 124.788 2.68629 124.788 6V33.3939H0V6Z" fill="white"/>
<path d="M0 6C0 2.6863 2.68629 0 6 0H118.788C122.102 0 124.788 2.68629 124.788 6V33.3939H0V6Z" fill="white"/>
<path d="M41.6818 30.7576C41.6818 32.1842 40.6003 33.5893 38.5987 34.6671C36.6175 35.7339 33.8461 36.4091 30.7576 36.4091C27.669 36.4091 24.8977 35.7339 22.9165 34.6671C20.9149 33.5893 19.8333 32.1842 19.8333 30.7576C19.8333 29.331 20.9149 27.9258 22.9165 26.848C24.8977 25.7812 27.669 25.1061 30.7576 25.1061C33.8461 25.1061 36.6175 25.7812 38.5987 26.848C40.6003 27.9258 41.6818 29.331 41.6818 30.7576Z" fill="black" stroke="white"/>
<path d="M103.197 30.7576C103.197 32.1842 102.115 33.5893 100.114 34.6671C98.1326 35.7339 95.3613 36.4091 92.2727 36.4091C89.1842 36.4091 86.4128 35.7339 84.4316 34.6671C82.43 33.5893 81.3485 32.1842 81.3485 30.7576C81.3485 29.331 82.43 27.9258 84.4316 26.848C86.4128 25.7812 89.1842 25.1061 92.2727 25.1061C95.3613 25.1061 98.1326 25.7812 100.114 26.848C102.115 27.9258 103.197 29.331 103.197 30.7576Z" fill="black" stroke="white"/>
<rect x="7.03033" y="29.8788" width="8.78788" height="5.27273" rx="1" fill="white"/>
<rect x="108.97" y="29.8788" width="8.78788" height="5.27273" rx="1" fill="white"/>
<path d="M6.97 53.255C5.73467 53.255 4.65517 53 3.7315 52.49C2.80783 51.98 2.08817 51.2603 1.5725 50.331C1.0625 49.396 0.8075 48.3052 0.8075 47.0585C0.8075 46.1518 0.957667 45.3217 1.258 44.568C1.564 43.8087 1.99183 43.1513 2.5415 42.596C3.09683 42.0407 3.75133 41.61 4.505 41.304C5.25867 40.998 6.086 40.845 6.987 40.845C7.89367 40.845 8.67567 40.9583 9.333 41.185C9.996 41.4117 10.574 41.7347 11.067 42.154L10.081 43.7095C9.707 43.3638 9.27067 43.106 8.772 42.936C8.27333 42.766 7.72367 42.681 7.123 42.681C6.46 42.681 5.86217 42.783 5.3295 42.987C4.79683 43.191 4.34067 43.4828 3.961 43.8625C3.587 44.2365 3.298 44.6927 3.094 45.231C2.89567 45.7637 2.7965 46.3672 2.7965 47.0415C2.7965 47.9595 2.975 48.7443 3.332 49.396C3.69467 50.0477 4.20467 50.5463 4.862 50.892C5.525 51.232 6.307 51.402 7.208 51.402C7.80867 51.402 8.38667 51.3142 8.942 51.1385C9.503 50.9572 10.0272 50.6653 10.5145 50.263L11.3985 51.8695C10.8262 52.3172 10.1717 52.66 9.435 52.898C8.704 53.136 7.88233 53.255 6.97 53.255ZM15.7805 53V41.1H17.6845V51.249H22.8695V53H15.7805ZM27.4076 53V41.1H35.1001V42.783H29.3116V45.996H34.3096V47.5855H29.3116V51.3H35.1511V53H27.4076ZM38.8283 53L43.4523 41.1H45.5178L50.2608 53H48.1103L47.0138 50.161H41.9733L40.9193 53H38.8283ZM42.4663 48.5205H46.5038L44.4468 43.3355L42.4663 48.5205ZM54.3639 53V41.1H56.1829L62.1924 49.7445V41.1H64.0454V53H62.2264L56.2254 44.2535V53H54.3639ZM69.5271 53V41.1H77.2196V42.783H71.4311V45.996H76.4291V47.5855H71.4311V51.3H77.2706V53H69.5271ZM82.3163 53V41.1H86.8128C87.6401 41.1 88.3541 41.2445 88.9548 41.5335C89.5611 41.8168 90.0286 42.222 90.3573 42.749C90.6916 43.276 90.8588 43.9022 90.8588 44.6275C90.8588 45.2168 90.7313 45.7382 90.4763 46.1915C90.2269 46.6448 89.8756 47.0188 89.4223 47.3135C88.9689 47.6025 88.4448 47.798 87.8498 47.9L91.4368 53H89.1333L85.8438 48.1975H84.2203V53H82.3163ZM84.2203 46.6165H86.4983C87.2689 46.6165 87.8668 46.4522 88.2918 46.1235C88.7224 45.7948 88.9378 45.3245 88.9378 44.7125C88.9378 44.0835 88.7451 43.5933 88.3598 43.242C87.9801 42.8907 87.4049 42.715 86.6343 42.715H84.2203V46.6165ZM95.4498 49.0305V47.407H100.04V49.0305H95.4498ZM110.396 53.255C109.16 53.255 108.081 53 107.157 52.49C106.234 51.98 105.514 51.2603 104.998 50.331C104.488 49.396 104.233 48.3052 104.233 47.0585C104.233 46.1518 104.383 45.3217 104.684 44.568C104.99 43.8087 105.418 43.1513 105.967 42.596C106.523 42.0407 107.177 41.61 107.931 41.304C108.684 40.998 109.512 40.845 110.413 40.845C111.319 40.845 112.101 40.9583 112.759 41.185C113.422 41.4117 114 41.7347 114.493 42.154L113.507 43.7095C113.133 43.3638 112.696 43.106 112.198 42.936C111.699 42.766 111.149 42.681 110.549 42.681C109.886 42.681 109.288 42.783 108.755 42.987C108.223 43.191 107.766 43.4828 107.387 43.8625C107.013 44.2365 106.724 44.6927 106.52 45.231C106.321 45.7637 106.222 46.3672 106.222 47.0415C106.222 47.9595 106.401 48.7443 106.758 49.396C107.12 50.0477 107.63 50.5463 108.288 50.892C108.951 51.232 109.733 51.402 110.634 51.402C111.234 51.402 111.812 51.3142 112.368 51.1385C112.929 50.9572 113.453 50.6653 113.94 50.263L114.824 51.8695C114.252 52.3172 113.597 52.66 112.861 52.898C112.13 53.136 111.308 53.255 110.396 53.255ZM121.374 53V43.106L118.288 44.2365L117.795 42.7575L123.006 40.845H123.142V53H121.374Z" fill="white"/>
</g>
<defs>
<clipPath id="clip0_1_13">
<rect width="125" height="54" fill="white"/>
</clipPath>
</defs>
</svg>
